<svg width="128" height="20" viewBox="0 0 128 20" fill="none" xmlns="http://www.w3.org/2000/svg">
<path d="M29.7674 16.0006H28.2326C28.0465 16.0006 28 15.9076 28 15.7215V4.23317C28 4.04712 28.093 3.9541 28.2326 3.9541H30.0465C30.186 3.9541 30.2791 4.04712 30.3256 4.14015L32.3721 7.9541C32.7907 8.7448 33.2558 9.72154 33.814 10.8843H33.907C34.4186 9.72154 34.9302 8.69829 35.3488 7.9541L37.3488 4.18666C37.4419 4.04712 37.5349 4.00061 37.6279 4.00061H39.4419C39.6279 4.00061 39.7209 4.09364 39.7209 4.27968V15.7681C39.7209 15.9541 39.6279 16.0471 39.4419 16.0471H37.907C37.7209 16.0471 37.6744 15.9541 37.6744 15.7681V12.3727C37.6744 11.0704 37.7209 9.30294 37.814 7.11689L37.7674 7.07038C37.4419 7.81457 36.9302 8.83782 36.2791 10.1867L34.7442 13.0239C34.6977 13.1634 34.6047 13.2099 34.4651 13.2099H33.2093C33.0698 13.2099 32.9767 13.1169 32.9302 13.0239L31.4419 10.1401C30.7442 8.79131 30.2791 7.76806 29.9535 7.02387L29.907 7.07038C30 9.25643 30.0465 11.0239 30.0465 12.3262V15.7215C30.0465 15.9076 29.907 16.0006 29.7674 16.0006Z" fill="#003A69"/>
<path d="M49.0234 12.7906C49.0234 13.8139 48.6513 14.6511 48.0002 15.2557C47.3025 15.8604 46.3723 16.186 45.2095 16.186C44.0467 16.186 43.1164 15.8604 42.4188 15.2557C41.7211 14.6511 41.3955 13.8139 41.3955 12.7906V10.5581C41.3955 9.4883 41.7676 8.69761 42.4188 8.04644C43.0699 7.39528 44.0467 7.11621 45.2095 7.11621C46.3723 7.11621 47.3025 7.44179 48.0002 8.04644C48.6978 8.69761 49.0234 9.4883 49.0234 10.5581V12.7906ZM43.3025 12.7906C43.3025 13.9069 43.9071 14.4185 45.163 14.4185C45.7676 14.4185 46.2327 14.279 46.5583 13.9999C46.8839 13.7209 47.0234 13.3023 47.0234 12.7906V10.5581C47.0234 9.99993 46.8374 9.58133 46.5118 9.30226C46.1862 8.97668 45.7211 8.83714 45.163 8.83714C44.5583 8.83714 44.0932 8.97668 43.7676 9.30226C43.442 9.58133 43.3025 9.99993 43.3025 10.5581V12.7906Z" fill="#003A69"/>
<path d="M51.5355 18.2324H50.1867C50.0006 18.2324 49.9541 18.1393 49.9541 17.9998V14.5114C49.9541 14.3254 50.0471 14.2789 50.1867 14.2789H50.5588C50.9308 13.9998 51.2099 13.4417 51.396 12.5579C51.6285 11.6277 51.8146 9.9998 52.0006 7.58119C52.0471 7.39514 52.1401 7.34863 52.2797 7.34863H57.8611C58.0471 7.34863 58.1401 7.44166 58.1401 7.58119V14.3254H58.9774C59.1634 14.3254 59.2564 14.4184 59.2564 14.6044V18.0928C59.2564 18.2789 59.1634 18.3254 58.9774 18.3254H57.6285C57.4425 18.3254 57.3495 18.2324 57.3495 18.0928V16.0463H51.8611V18.0463C51.7681 18.1858 51.675 18.2324 51.5355 18.2324ZM53.7681 9.02305C53.5355 11.8137 53.1634 13.5347 52.6053 14.2789H56.0936V9.02305H53.7681Z" fill="#003A69"/>
<path d="M65.7675 13.6273V7.53432C65.7675 7.34827 65.8605 7.30176 66.0466 7.30176H67.4885C67.6745 7.30176 67.7675 7.39478 67.7675 7.53432V15.4413C67.7675 18.0459 66.5117 19.3483 64.0466 19.3483C62.6978 19.3483 61.5815 18.9762 60.7443 18.2785C60.6047 18.1855 60.6047 18.0459 60.6978 17.9529L61.442 16.9297C61.535 16.7901 61.628 16.7436 61.7675 16.8366C62.5117 17.3483 63.2559 17.6273 64.0466 17.6273C64.6978 17.6273 65.1629 17.4413 65.4419 17.1157C65.7675 16.7901 65.9071 16.232 65.8606 15.4413C65.2094 15.6739 64.6047 15.7669 64.0931 15.7669C63.1164 15.7669 62.3257 15.4413 61.5815 14.8832C60.8838 14.2785 60.5117 13.4413 60.5117 12.3715V7.53432C60.5117 7.34827 60.6047 7.30176 60.7908 7.30176H62.2326C62.4187 7.30176 62.4652 7.39478 62.4652 7.53432V12.232C62.4652 12.8366 62.6512 13.2552 63.0233 13.5343C63.3954 13.8134 63.8605 13.9529 64.3722 13.9529C64.8373 13.9529 65.3489 13.8599 65.7675 13.6273Z" fill="#003A69"/>
<path d="M72.3258 13.1153C72.0932 14.1851 71.7676 14.9293 71.349 15.3479C70.8839 15.7665 70.2327 15.9991 69.256 16.0456C69.0699 16.0456 69.0234 15.9526 69.0234 15.7665V14.5572C69.0234 14.4177 69.1165 14.3247 69.256 14.2781C69.5816 14.2316 69.8607 14.0921 70.0002 13.8595C70.1862 13.627 70.3258 13.1619 70.4653 12.5572C70.6514 11.4409 70.7909 9.76651 70.8839 7.48744C70.9304 7.30139 71.0234 7.25488 71.163 7.25488H76.8374C77.0235 7.25488 77.1165 7.34791 77.1165 7.48744V15.6735C77.1165 15.8595 77.0235 15.9526 76.8374 15.9526H75.3955C75.2095 15.9526 75.1165 15.8595 75.1165 15.6735V9.02232H72.6514C72.6514 10.6037 72.5118 11.9526 72.3258 13.1153Z" fill="#003A69"/>
<path d="M82.5119 15.9529H79.0701C78.884 15.9529 78.791 15.8599 78.791 15.6739V7.53432C78.791 7.34827 78.884 7.30176 79.0701 7.30176H80.512C80.698 7.30176 80.791 7.39478 80.791 7.53432V10.139H82.5585C83.5817 10.139 84.4189 10.418 85.0701 10.9297C85.7213 11.4413 86.0003 12.1855 86.0003 13.1157C86.0003 14.0925 85.6747 14.8366 85.0701 15.3018C84.4189 15.7204 83.5817 15.9529 82.5119 15.9529ZM80.7445 11.7204V14.3715H82.1864C83.3957 14.3715 84.0003 13.9064 84.0003 13.0692C84.0003 12.6041 83.8608 12.2785 83.5352 12.0459C83.2096 11.8134 82.791 11.7204 82.1864 11.7204H80.7445Z" fill="#003A69"/>
<path d="M88.4655 15.9531H87.8143C87.7213 15.9531 87.6748 15.9066 87.6748 15.8136V4.09266C87.6748 3.99964 87.7213 3.95312 87.8143 3.95312H88.4655C88.5585 3.95312 88.605 3.99964 88.605 4.09266V10.2787L94.6981 4.04615C94.7911 3.95312 94.8376 3.95312 94.8841 3.95312H95.7213C95.7678 3.95312 95.8143 3.99964 95.8608 3.99964C95.9074 4.04615 95.8608 4.09266 95.8143 4.13917L90.6981 9.39498L96.1399 15.8136C96.2329 15.9066 96.1399 15.9996 96.0469 15.9996H95.2097C95.1167 15.9996 95.0701 15.9531 95.0236 15.9066L90.0469 10.0461L88.605 11.488V15.8136C88.5585 15.9066 88.512 15.9531 88.4655 15.9531Z" fill="#003A69"/>
<path d="M97.3489 8.04583C98.1861 7.44118 99.2094 7.16211 100.419 7.16211C101.442 7.16211 102.233 7.44118 102.791 7.99932C103.349 8.55746 103.628 9.34816 103.628 10.3714V15.4877C103.628 15.5807 103.581 15.6272 103.488 15.6737C102.512 16.0458 101.442 16.2319 100.372 16.2319C99.3489 16.2319 98.5117 15.9993 97.8605 15.5342C97.2094 15.0691 96.8838 14.3714 96.8838 13.4877C96.8838 12.6505 97.2094 11.9993 97.814 11.5342C98.4187 11.0691 99.3024 10.8365 100.419 10.8365C101.023 10.8365 101.814 10.9296 102.791 11.1156V10.3714C102.791 8.79002 102 7.99932 100.419 7.99932C99.4419 7.99932 98.6047 8.23188 97.8605 8.69699C97.7675 8.74351 97.721 8.7435 97.6745 8.65048L97.3954 8.18537C97.3024 8.13885 97.3024 8.04583 97.3489 8.04583ZM97.7675 13.4412C97.7675 14.0458 98.0001 14.5109 98.5117 14.8365C98.9768 15.2086 99.628 15.3482 100.419 15.3482C101.209 15.3482 102 15.2086 102.791 14.9295V11.8133C102 11.6272 101.256 11.5342 100.419 11.5342C98.6512 11.5807 97.7675 12.2319 97.7675 13.4412Z" fill="#003A69"/>
<path d="M111.767 15.1621C110.884 15.8598 109.907 16.1854 108.79 16.1854C107.721 16.1854 106.93 15.8598 106.279 15.3016C105.674 14.697 105.349 13.9528 105.349 13.0226V10.3249C105.349 9.39467 105.674 8.65048 106.279 8.04583C106.884 7.44118 107.721 7.16211 108.79 7.16211C109.767 7.16211 110.651 7.44118 111.488 8.04583C111.581 8.13885 111.581 8.18536 111.535 8.27839L111.256 8.7435C111.163 8.83653 111.116 8.83653 111.023 8.79002C110.325 8.3249 109.581 8.04583 108.744 8.04583C107.907 8.04583 107.349 8.27839 106.884 8.69699C106.418 9.16211 106.186 9.72025 106.186 10.3714V13.0226C106.186 13.7202 106.418 14.2784 106.884 14.697C107.349 15.1621 107.953 15.3482 108.744 15.3482C109.628 15.3482 110.418 15.0691 111.256 14.5109C111.349 14.4179 111.395 14.4179 111.488 14.5575L111.767 14.9761C111.814 15.0226 111.814 15.1156 111.767 15.1621Z" fill="#003A69"/>
<path d="M119.535 15.1621C118.651 15.8598 117.674 16.1854 116.558 16.1854C115.488 16.1854 114.698 15.8598 114.046 15.3016C113.442 14.697 113.116 13.9528 113.116 13.0226V10.3249C113.116 9.39467 113.442 8.65048 114.046 8.04583C114.651 7.44118 115.488 7.16211 116.558 7.16211C117.535 7.16211 118.419 7.44118 119.256 8.04583C119.349 8.13885 119.349 8.18536 119.302 8.27839L119.023 8.7435C118.93 8.83653 118.884 8.83653 118.791 8.79002C118.093 8.3249 117.349 8.04583 116.512 8.04583C115.721 8.04583 115.116 8.27839 114.651 8.69699C114.186 9.16211 113.953 9.72025 113.953 10.3714V13.0226C113.953 13.7202 114.186 14.2784 114.651 14.697C115.116 15.1621 115.721 15.3482 116.512 15.3482C117.395 15.3482 118.186 15.0691 119.023 14.5109C119.116 14.4179 119.163 14.4179 119.256 14.5575L119.535 14.9761C119.581 15.0226 119.581 15.1156 119.535 15.1621Z" fill="#003A69"/>
<path d="M121.116 8.04583C121.954 7.44118 122.977 7.16211 124.186 7.16211C125.21 7.16211 126 7.44118 126.558 7.99932C127.116 8.55746 127.396 9.34816 127.396 10.3714V15.4877C127.396 15.5807 127.349 15.6272 127.256 15.6737C126.279 16.0458 125.21 16.2319 124.14 16.2319C123.116 16.2319 122.279 15.9993 121.628 15.5342C120.977 15.0691 120.651 14.3714 120.651 13.4877C120.651 12.6505 120.977 11.9993 121.582 11.5342C122.233 11.0691 123.07 10.8365 124.186 10.8365C124.791 10.8365 125.582 10.9296 126.558 11.1156V10.3714C126.558 8.79002 125.768 7.99932 124.186 7.99932C123.21 7.99932 122.372 8.23188 121.628 8.69699C121.535 8.74351 121.489 8.7435 121.442 8.65048L121.163 8.18537C121.07 8.13885 121.07 8.04583 121.116 8.04583ZM121.535 13.4412C121.535 14.0458 121.768 14.5109 122.279 14.8365C122.744 15.2086 123.396 15.3482 124.186 15.3482C124.977 15.3482 125.768 15.2086 126.558 14.9295V11.8133C125.768 11.6272 125.023 11.5342 124.186 11.5342C122.419 11.5807 121.535 12.2319 121.535 13.4412Z" fill="#003A69"/>
<path d="M4 3.9998H0V7.9998H4V3.9998Z" fill="#D2D800"/>
<path d="M12.0001 7.99941H8.00011V11.9994H12.0001V7.99941Z" fill="#D2D800"/>
<path d="M15.9999 11.9997L12.0001 11.9994L11.9999 15.9997H15.9999V11.9997Z" fill="#D2D800"/>
<path d="M15.9997 3.99961H11.9997L12.0001 7.99941L15.9997 7.99961V3.99961Z" fill="#D2D800"/>
<path d="M19.9995 15.9995L15.9999 15.9997L15.9995 19.9995H19.9995V15.9995Z" fill="#D2D800"/>
<path d="M8.00011 11.9994L3.99961 11.9997V15.9997H7.99961L8.00011 11.9994Z" fill="#D2D800"/>
<path d="M12.0001 0H8.00011V4L11.9997 3.99961L12.0001 0Z" fill="#D2D800"/>
<path d="M3.99961 11.9997L0 11.9999V15.9999L3.99961 15.9997V11.9997Z" fill="#D2D800"/>
<path d="M8.00011 4L4 3.9998V7.9998L8.00011 7.99941V4Z" fill="#D2D800"/>
<path d="M11.9999 15.9997H7.99961L7.99941 19.9996H11.9994L11.9999 15.9997Z" fill="#D2D800"/>
<path d="M19.9995 3.99973L15.9997 3.99961V7.99961L19.9995 7.99973V3.99973Z" fill="#D2D800"/>
<path d="M4 0H0V3.9998H4V0Z" fill="#D2D800"/>
<path d="M8.00011 7.99941L4 7.9998L3.99961 11.9997L8.00011 11.9994V7.99941Z" fill="#D2D800"/>
<path d="M3.99961 15.9997L0 15.9999V20.0002H4L3.99961 15.9997Z" fill="#D2D800"/>
<path d="M15.9999 0H12.0001L11.9997 3.99961H15.9997L15.9999 0Z" fill="#D2D800"/>
<path d="M19.9995 7.99973L15.9997 7.99961L15.9999 11.9997L20.0002 12.0001L19.9995 7.99973Z" fill="#D2D800"/>
</svg>
