<svg width="153" height="20" viewBox="0 0 153 20" fill="none" xmlns="http://www.w3.org/2000/svg">
<path d="M29.7355 15.9972H28.2077C28.0432 15.9972 27.9727 15.903 27.9727 15.7383V4.23246C27.9727 4.06775 28.0432 3.97363 28.2077 3.97363H30.0411C30.1821 3.97363 30.2526 4.04422 30.2996 4.16187L32.3446 7.97363C32.7677 8.77363 33.2378 9.76187 33.7784 10.9148H33.8489C34.366 9.73834 34.8596 8.7501 35.2827 7.97363L37.3041 4.16187C37.3746 4.04422 37.4686 3.97363 37.5862 3.97363H39.396C39.5606 3.97363 39.6546 4.06775 39.6546 4.23246V15.7383C39.6546 15.903 39.5606 15.9972 39.396 15.9972H37.8447C37.6802 15.9972 37.6097 15.903 37.6097 15.7383V12.3501C37.6097 11.0325 37.6567 9.26775 37.7507 7.07951L37.7037 7.05599C37.3746 7.7854 36.8575 8.82069 36.1994 10.1619L34.7186 13.0325C34.6716 13.1501 34.5775 13.2207 34.4365 13.2207H33.1672C33.0262 13.2207 32.9322 13.1501 32.8852 13.0325L31.4044 10.1619C30.7227 8.82069 30.2291 7.7854 29.9001 7.05599L29.853 7.07951C29.9471 9.26775 29.9941 11.0325 29.9941 12.3501V15.7383C29.9941 15.903 29.9001 15.9972 29.7355 15.9972Z" fill="white"/>
<path d="M48.9593 12.7986C48.9593 13.8339 48.6068 14.6574 47.9251 15.2692C47.2435 15.881 46.3033 16.1868 45.1515 16.1868C43.9998 16.1868 43.0596 15.881 42.378 15.2692C41.6963 14.6574 41.3437 13.8339 41.3437 12.7986V10.5633C41.3437 9.50449 41.6963 8.68096 42.378 8.04567C43.0596 7.41037 43.9998 7.10449 45.1515 7.10449C46.3033 7.10449 47.2435 7.41037 47.9251 8.04567C48.6068 8.68096 48.9593 9.50449 48.9593 10.5633V12.7986ZM43.2712 12.7986C43.2712 13.9045 43.8823 14.4457 45.128 14.4457C45.7392 14.4457 46.1858 14.3045 46.5148 14.0221C46.8439 13.7398 46.9849 13.3398 46.9849 12.7986V10.5633C46.9849 10.0221 46.8204 9.59861 46.4913 9.29273C46.1623 8.98684 45.7157 8.84567 45.128 8.84567C44.5169 8.84567 44.0703 8.98684 43.7413 9.29273C43.4122 9.57508 43.2712 9.99861 43.2712 10.5633V12.7986Z" fill="white"/>
<path d="M51.4763 18.235H50.113C49.9484 18.235 49.8779 18.1644 49.8779 17.9997V14.5174C49.8779 14.3527 49.9484 14.2821 50.113 14.2821H50.4891C50.8651 14.0233 51.1472 13.435 51.3352 12.5409C51.5468 11.6233 51.7348 9.97621 51.9229 7.55268C51.9464 7.38797 52.0404 7.31738 52.1814 7.31738H57.7521C57.9166 7.31738 58.0106 7.38797 58.0106 7.55268V14.2821H58.8568C59.0213 14.2821 59.1154 14.3762 59.1154 14.5409V18.0233C59.1154 18.188 59.0213 18.2586 58.8568 18.2586H57.4935C57.329 18.2586 57.235 18.188 57.235 18.0233V15.9997H51.7348V17.9997C51.7348 18.1644 51.6408 18.235 51.4763 18.235ZM53.7327 9.0115C53.4977 11.788 53.1216 13.5291 52.581 14.2821H56.0597V9.0115H53.7327Z" fill="white"/>
<path d="M65.7204 13.644V7.52631C65.7204 7.3616 65.8144 7.29102 65.9789 7.29102H67.4127C67.5773 7.29102 67.6713 7.3616 67.6713 7.52631V15.4322C67.6713 18.044 66.4255 19.3381 63.934 19.3381C62.5942 19.3381 61.4895 18.9851 60.6433 18.2792C60.5258 18.1851 60.5023 18.0675 60.5963 17.9498L61.325 16.9381C61.419 16.7969 61.513 16.7734 61.654 16.844C62.4062 17.3616 63.1583 17.6204 63.934 17.6204C64.5686 17.6204 65.0387 17.4557 65.3443 17.1263C65.6499 16.7969 65.7909 16.2322 65.7674 15.4322C65.1093 15.644 64.5216 15.7381 63.981 15.7381C63.0173 15.7381 62.1946 15.4322 61.466 14.844C60.7608 14.2557 60.3848 13.4087 60.3848 12.3263V7.52631C60.3848 7.3616 60.4788 7.29102 60.6433 7.29102H62.1006C62.2652 7.29102 62.3357 7.3616 62.3357 7.52631V12.2322C62.3357 12.844 62.5237 13.2675 62.8763 13.5498C63.2289 13.8322 63.699 13.9734 64.2396 13.9734C64.7802 13.9734 65.2738 13.8557 65.7204 13.644Z" fill="white"/>
<path d="M72.231 13.1291C72.0195 14.188 71.6904 14.9409 71.2674 15.3644C70.8208 15.788 70.1391 16.0233 69.1989 16.0703C69.0344 16.0703 68.9639 15.9762 68.9639 15.8115V14.588C68.9639 14.4468 69.0344 14.3527 69.1989 14.3291C69.528 14.3056 69.7865 14.1644 69.9511 13.9291C70.1391 13.6939 70.2801 13.2468 70.4212 12.6115C70.6092 11.5056 70.7502 9.8115 70.8443 7.55268C70.8678 7.38797 70.9618 7.31738 71.1028 7.31738H76.791C76.9555 7.31738 77.0496 7.38797 77.0496 7.55268V15.7409C77.0496 15.9056 76.9555 15.9997 76.791 15.9997H75.3572C75.1927 15.9997 75.0986 15.9056 75.0986 15.7409V9.0115H72.6306C72.5601 10.6115 72.4426 11.9762 72.231 13.1291Z" fill="white"/>
<path d="M82.4355 15.9734H78.9802C78.8157 15.9734 78.7217 15.8793 78.7217 15.7145V7.52631C78.7217 7.3616 78.8157 7.29102 78.9802 7.29102H80.414C80.5786 7.29102 80.6726 7.3616 80.6726 7.52631V10.1145H82.459C83.4932 10.1145 84.3158 10.3734 84.9505 10.891C85.5851 11.4087 85.8907 12.1381 85.8907 13.0793C85.8907 14.0675 85.5851 14.7969 84.974 15.2675C84.3394 15.7381 83.5167 15.9734 82.4355 15.9734ZM80.6491 11.7145V14.3734H82.0829C83.2816 14.3734 83.8928 13.9263 83.8928 13.0557C83.8928 12.6087 83.7517 12.2557 83.4462 12.044C83.1406 11.8322 82.694 11.7145 82.0829 11.7145H80.6491Z" fill="white"/>
<path d="M88.3548 15.9737H87.6967C87.6027 15.9737 87.5557 15.9267 87.5557 15.8325V4.09137C87.5557 3.99725 87.6027 3.9502 87.6967 3.9502H88.3548C88.4488 3.9502 88.4959 3.99725 88.4959 4.09137V10.2561L94.5601 4.04431C94.6306 3.97372 94.6777 3.9502 94.7482 3.9502H95.5943C95.6414 3.9502 95.6884 3.97372 95.7119 3.99725C95.7354 4.02078 95.7119 4.06784 95.6884 4.1149L90.5643 9.36196L95.9939 15.7855C96.0644 15.8796 95.9939 15.9502 95.8999 15.9502H95.0537C94.9597 15.9502 94.9362 15.9267 94.8892 15.8561L89.9297 9.99725L88.4959 11.4325V15.809C88.4724 15.9267 88.4253 15.9737 88.3548 15.9737Z" fill="white"/>
<path d="M97.2631 8.01707C98.0857 7.42884 99.12 7.14648 100.342 7.14648C101.376 7.14648 102.152 7.42884 102.716 7.97001C103.28 8.51119 103.539 9.31119 103.539 10.323V15.4288C103.539 15.4994 103.492 15.57 103.421 15.5935C102.434 15.97 101.4 16.1582 100.295 16.1582C99.2845 16.1582 98.4383 15.923 97.7802 15.4524C97.122 14.9818 96.793 14.2994 96.793 13.4288C96.793 12.5818 97.0985 11.923 97.7332 11.4524C98.3678 10.9818 99.214 10.77 100.319 10.77C100.906 10.77 101.705 10.8641 102.669 11.0288V10.2994C102.669 8.72295 101.894 7.92296 100.319 7.92296C99.355 7.92296 98.4853 8.15825 97.7567 8.60531C97.6862 8.65237 97.6391 8.65237 97.5686 8.58178L97.2866 8.13472C97.2161 8.11119 97.2161 8.0406 97.2631 8.01707ZM97.6862 13.4288C97.6862 14.0171 97.9212 14.4877 98.4148 14.8406C98.8849 15.1935 99.5195 15.3582 100.319 15.3582C101.094 15.3582 101.894 15.2171 102.669 14.9582V11.8288C101.894 11.6641 101.118 11.57 100.319 11.57C98.5558 11.57 97.6862 12.2053 97.6862 13.4288Z" fill="white"/>
<path d="M111.648 15.1465C110.755 15.8288 109.791 16.1818 108.687 16.1818C107.629 16.1818 106.806 15.8759 106.172 15.2877C105.561 14.6994 105.231 13.923 105.231 13.0053V10.323C105.231 9.40531 105.537 8.65237 106.172 8.0406C106.783 7.45237 107.629 7.14648 108.687 7.14648C109.65 7.14648 110.544 7.42884 111.39 8.01707C111.46 8.08766 111.484 8.15825 111.437 8.22884L111.155 8.6759C111.084 8.74648 111.014 8.74648 110.943 8.69943C110.238 8.22884 109.486 7.97001 108.687 7.97001C107.887 7.97001 107.276 8.18178 106.806 8.62884C106.36 9.0759 106.125 9.6406 106.125 10.323V13.0053C106.125 13.7112 106.36 14.2759 106.806 14.6994C107.253 15.1465 107.887 15.3582 108.687 15.3582C109.556 15.3582 110.379 15.0759 111.178 14.5112C111.249 14.4406 111.319 14.4406 111.39 14.5347L111.672 14.9582C111.719 15.0288 111.719 15.0994 111.648 15.1465Z" fill="white"/>
<path d="M119.406 15.1465C118.513 15.8288 117.549 16.1818 116.444 16.1818C115.387 16.1818 114.564 15.8759 113.929 15.2877C113.318 14.6994 112.989 13.923 112.989 13.0053V10.323C112.989 9.40531 113.295 8.65237 113.929 8.0406C114.541 7.45237 115.387 7.14648 116.444 7.14648C117.408 7.14648 118.301 7.42884 119.148 8.01707C119.218 8.08766 119.242 8.15825 119.195 8.22884L118.912 8.6759C118.842 8.74648 118.771 8.74648 118.701 8.69943C117.996 8.22884 117.244 7.97001 116.444 7.97001C115.645 7.97001 115.034 8.18178 114.564 8.62884C114.117 9.0759 113.882 9.6406 113.882 10.323V13.0053C113.882 13.7112 114.117 14.2759 114.564 14.6994C115.011 15.1465 115.645 15.3582 116.444 15.3582C117.314 15.3582 118.137 15.0759 118.936 14.5112C119.007 14.4406 119.077 14.4406 119.148 14.5347L119.43 14.9582C119.477 15.0288 119.453 15.0994 119.406 15.1465Z" fill="white"/>
<path d="M120.98 8.01707C121.803 7.42884 122.837 7.14648 124.059 7.14648C125.093 7.14648 125.869 7.42884 126.433 7.97001C126.997 8.51119 127.256 9.31119 127.256 10.323V15.4288C127.256 15.4994 127.209 15.57 127.138 15.5935C126.151 15.97 125.117 16.1582 124.012 16.1582C123.001 16.1582 122.155 15.923 121.497 15.4524C120.839 14.9818 120.51 14.2994 120.51 13.4288C120.51 12.5818 120.815 11.923 121.45 11.4524C122.085 10.9818 122.931 10.77 124.036 10.77C124.623 10.77 125.422 10.8641 126.386 11.0288V10.2994C126.386 8.72295 125.61 7.92296 124.036 7.92296C123.072 7.92296 122.202 8.15825 121.473 8.60531C121.403 8.65237 121.356 8.65237 121.285 8.58178L121.003 8.13472C120.933 8.11119 120.933 8.0406 120.98 8.01707ZM121.403 13.4288C121.403 14.0171 121.638 14.4877 122.132 14.8406C122.602 15.1935 123.236 15.3582 124.036 15.3582C124.811 15.3582 125.61 15.2171 126.386 14.9582V11.8288C125.61 11.6641 124.835 11.57 124.036 11.57C122.273 11.57 121.403 12.2053 121.403 13.4288Z" fill="white"/>
<path d="M12 12V8H8V4H4V0H0V8H4V12H0V20H4V16H8V12H12Z" fill="white"/>
<path d="M15.999 11.999H11.999V15.999H15.999V11.999Z" fill="white"/>
<path d="M19.999 15.999H15.999V19.999H19.999V15.999Z" fill="white"/>
<path d="M12.001 15.999H8.00098V19.999H12.001V15.999Z" fill="white"/>
<path d="M16.001 4V0H8.00098V4H12.001V8H16.001V12H20.001V4H16.001Z" fill="white"/>
</svg>
