<svg width="153" height="24" viewBox="0 0 153 24" fill="none" xmlns="http://www.w3.org/2000/svg">
<path d="M35.6809 19.1997H33.8475C33.65 19.1997 33.5654 19.0868 33.5654 18.8891V5.08207C33.5654 4.88443 33.65 4.77148 33.8475 4.77148H36.0475C36.2168 4.77148 36.3014 4.85619 36.3578 4.99737L38.8117 9.57148C39.3194 10.5315 39.8836 11.7174 40.5323 13.1009H40.6169C41.2374 11.6891 41.8298 10.5032 42.3375 9.57148L44.7632 4.99737C44.8478 4.85619 44.9606 4.77148 45.1016 4.77148H47.2735C47.4709 4.77148 47.5838 4.88443 47.5838 5.08207V18.8891C47.5838 19.0868 47.4709 19.1997 47.2735 19.1997H45.4119C45.2145 19.1997 45.1298 19.0868 45.1298 18.8891V14.8232C45.1298 13.2421 45.1863 11.1244 45.2991 8.49854L45.2427 8.47031C44.8478 9.3456 44.2273 10.588 43.4375 12.1974L41.6605 15.6421C41.6041 15.7832 41.4913 15.868 41.3221 15.868H39.7989C39.6297 15.868 39.5169 15.7832 39.4605 15.6421L37.6835 12.1974C36.8655 10.588 36.2732 9.3456 35.8783 8.47031L35.8219 8.49854C35.9347 11.1244 35.9911 13.2421 35.9911 14.8232V18.8891C35.9911 19.0868 35.8783 19.1997 35.6809 19.1997Z" fill="white"/>
<path d="M58.753 15.3593C58.753 16.6017 58.3299 17.5899 57.5119 18.324C56.6939 19.0581 55.5657 19.4252 54.1836 19.4252C52.8015 19.4252 51.6733 19.0581 50.8553 18.324C50.0373 17.5899 49.6143 16.6017 49.6143 15.3593V12.677C49.6143 11.4064 50.0373 10.4181 50.8553 9.65578C51.6733 8.89343 52.8015 8.52637 54.1836 8.52637C55.5657 8.52637 56.6939 8.89343 57.5119 9.65578C58.3299 10.4181 58.753 11.4064 58.753 12.677V15.3593ZM51.9271 15.3593C51.9271 16.6864 52.6605 17.3358 54.1554 17.3358C54.8888 17.3358 55.4247 17.1664 55.8196 16.8275C56.2144 16.4887 56.3837 16.0087 56.3837 15.3593V12.677C56.3837 12.0275 56.1862 11.5193 55.7914 11.1522C55.3965 10.7852 54.8606 10.6158 54.1554 10.6158C53.4221 10.6158 52.8861 10.7852 52.4913 11.1522C52.0964 11.4911 51.9271 11.9993 51.9271 12.677V15.3593Z" fill="white"/>
<path d="M61.7715 21.8824H60.1356C59.9381 21.8824 59.8535 21.7977 59.8535 21.6001V17.4212C59.8535 17.2236 59.9381 17.1389 60.1356 17.1389H60.5869C61.0382 16.8283 61.3766 16.1224 61.6023 15.0495C61.8561 13.9483 62.0818 11.9718 62.3074 9.0636C62.3356 8.86596 62.4485 8.78125 62.6177 8.78125H69.3025C69.4999 8.78125 69.6128 8.86596 69.6128 9.0636V17.1389H70.6282C70.8256 17.1389 70.9384 17.2518 70.9384 17.4495V21.6283C70.9384 21.826 70.8256 21.9107 70.6282 21.9107H68.9922C68.7948 21.9107 68.682 21.826 68.682 21.6283V19.2001H62.0818V21.6001C62.0818 21.7977 61.969 21.8824 61.7715 21.8824ZM64.4793 10.8142C64.1972 14.146 63.7459 16.2354 63.0972 17.1389H67.2717V10.8142H64.4793Z" fill="white"/>
<path d="M78.8637 16.3765V9.03528C78.8637 8.83764 78.9765 8.75293 79.1739 8.75293H80.8945C81.0919 8.75293 81.2048 8.83764 81.2048 9.03528V18.5223C81.2048 21.6565 79.7099 23.2094 76.72 23.2094C75.1123 23.2094 73.7866 22.7859 72.7712 21.9388C72.6302 21.8259 72.602 21.6847 72.7148 21.5435L73.5892 20.3294C73.702 20.16 73.8148 20.1318 73.9841 20.2165C74.8866 20.8376 75.7892 21.1482 76.72 21.1482C77.4816 21.1482 78.0457 20.9506 78.4124 20.5553C78.7791 20.16 78.9483 19.4823 78.9201 18.5223C78.1303 18.7765 77.4252 18.8894 76.7764 18.8894C75.62 18.8894 74.6328 18.5223 73.7584 17.8165C72.9122 17.1106 72.4609 16.0941 72.4609 14.7953V9.03528C72.4609 8.83764 72.5738 8.75293 72.7712 8.75293H74.52C74.7174 8.75293 74.802 8.83764 74.802 9.03528V14.6823C74.802 15.4165 75.0277 15.9247 75.4508 16.2635C75.8739 16.6023 76.438 16.7718 77.0867 16.7718C77.7354 16.7718 78.3278 16.6306 78.8637 16.3765Z" fill="white"/>
<path d="M86.6775 15.7554C86.4236 17.026 86.0287 17.9295 85.521 18.4377C84.9851 18.946 84.1671 19.2283 83.0389 19.2848C82.8415 19.2848 82.7568 19.1718 82.7568 18.9742V17.506C82.7568 17.3365 82.8415 17.2236 83.0389 17.1954C83.4338 17.1671 83.744 16.9977 83.9415 16.7154C84.1671 16.433 84.3364 15.8965 84.5056 15.1342C84.7313 13.8071 84.9005 11.7742 85.0133 9.0636C85.0415 8.86596 85.1543 8.78125 85.3236 8.78125H92.1494C92.3468 8.78125 92.4597 8.86596 92.4597 9.0636V18.8895C92.4597 19.0871 92.3468 19.2001 92.1494 19.2001H90.4288C90.2314 19.2001 90.1186 19.0871 90.1186 18.8895V10.8142H87.157C87.0723 12.7342 86.9313 14.3718 86.6775 15.7554Z" fill="white"/>
<path d="M98.9184 19.1718H94.7722C94.5747 19.1718 94.4619 19.0588 94.4619 18.8612V9.03528C94.4619 8.83764 94.5747 8.75293 94.7722 8.75293H96.4927C96.6902 8.75293 96.803 8.83764 96.803 9.03528V12.1412H98.9466C100.188 12.1412 101.175 12.4518 101.936 13.0729C102.698 13.6941 103.065 14.5694 103.065 15.6988C103.065 16.8847 102.698 17.76 101.965 18.3247C101.203 18.8894 100.216 19.1718 98.9184 19.1718ZM96.7748 14.0612V17.2518H98.4954C99.9339 17.2518 100.667 16.7153 100.667 15.6706C100.667 15.1341 100.498 14.7106 100.131 14.4565C99.7646 14.2023 99.2287 14.0612 98.4954 14.0612H96.7748Z" fill="white"/>
<path d="M106.026 19.1714H105.237C105.124 19.1714 105.067 19.1149 105.067 19.002V4.91258C105.067 4.79963 105.124 4.74316 105.237 4.74316H106.026C106.139 4.74316 106.196 4.79963 106.196 4.91258V12.3102L113.473 4.85611C113.557 4.7714 113.614 4.74316 113.698 4.74316H114.714C114.77 4.74316 114.827 4.7714 114.855 4.79963C114.883 4.82787 114.855 4.88434 114.827 4.94081L108.678 11.2373L115.193 18.9455C115.278 19.0585 115.193 19.1432 115.08 19.1432H114.065C113.952 19.1432 113.924 19.1149 113.868 19.0302L107.916 11.9996L106.196 13.722V18.9738C106.167 19.1149 106.111 19.1714 106.026 19.1714Z" fill="white"/>
<path d="M116.716 9.62771C117.704 8.92183 118.945 8.58301 120.411 8.58301C121.652 8.58301 122.583 8.92183 123.26 9.57124C123.937 10.2207 124.247 11.1807 124.247 12.3948V18.5218C124.247 18.6065 124.191 18.6912 124.106 18.7195C122.922 19.1712 121.681 19.3971 120.355 19.3971C119.142 19.3971 118.127 19.1148 117.337 18.5501C116.547 17.9854 116.152 17.1665 116.152 16.1218C116.152 15.1054 116.519 14.3148 117.281 13.7501C118.042 13.1854 119.058 12.9312 120.383 12.9312C121.088 12.9312 122.047 13.0442 123.204 13.2418V12.3665C123.204 10.4748 122.273 9.51477 120.383 9.51477C119.227 9.51477 118.183 9.79713 117.309 10.3336C117.224 10.3901 117.168 10.3901 117.083 10.3054L116.745 9.76889C116.66 9.74065 116.66 9.65595 116.716 9.62771ZM117.224 16.1218C117.224 16.8277 117.506 17.3924 118.099 17.8159C118.663 18.2395 119.424 18.4371 120.383 18.4371C121.314 18.4371 122.273 18.2677 123.204 17.9571V14.2018C122.273 14.0042 121.342 13.8912 120.383 13.8912C118.268 13.8912 117.224 14.6536 117.224 16.1218Z" fill="white"/>
<path d="M133.979 18.183C132.907 19.0018 131.75 19.4254 130.425 19.4254C129.155 19.4254 128.168 19.0583 127.407 18.3524C126.673 17.6465 126.278 16.7148 126.278 15.6136V12.3948C126.278 11.2936 126.645 10.3901 127.407 9.65595C128.14 8.95007 129.155 8.58301 130.425 8.58301C131.581 8.58301 132.653 8.92183 133.668 9.62771C133.753 9.71242 133.781 9.79713 133.725 9.88183L133.386 10.4183C133.302 10.503 133.217 10.503 133.132 10.4465C132.286 9.88183 131.384 9.57124 130.425 9.57124C129.466 9.57124 128.732 9.82536 128.168 10.3618C127.632 10.8983 127.35 11.5759 127.35 12.3948V15.6136C127.35 16.4607 127.632 17.1383 128.168 17.6465C128.704 18.183 129.466 18.4371 130.425 18.4371C131.468 18.4371 132.455 18.0983 133.414 17.4207C133.499 17.3359 133.584 17.3359 133.668 17.4489L134.007 17.9571C134.063 18.0418 134.063 18.1265 133.979 18.183Z" fill="white"/>
<path d="M143.286 18.183C142.214 19.0018 141.058 19.4254 139.732 19.4254C138.463 19.4254 137.476 19.0583 136.714 18.3524C135.981 17.6465 135.586 16.7148 135.586 15.6136V12.3948C135.586 11.2936 135.953 10.3901 136.714 9.65595C137.448 8.95007 138.463 8.58301 139.732 8.58301C140.889 8.58301 141.96 8.92183 142.976 9.62771C143.06 9.71242 143.089 9.79713 143.032 9.88183L142.694 10.4183C142.609 10.503 142.525 10.503 142.44 10.4465C141.594 9.88183 140.691 9.57124 139.732 9.57124C138.773 9.57124 138.04 9.82536 137.476 10.3618C136.94 10.8983 136.658 11.5759 136.658 12.3948V15.6136C136.658 16.4607 136.94 17.1383 137.476 17.6465C138.012 18.183 138.773 18.4371 139.732 18.4371C140.776 18.4371 141.763 18.0983 142.722 17.4207C142.807 17.3359 142.891 17.3359 142.976 17.4489L143.314 17.9571C143.371 18.0418 143.343 18.1265 143.286 18.183Z" fill="white"/>
<path d="M145.175 9.62771C146.163 8.92183 147.404 8.58301 148.87 8.58301C150.111 8.58301 151.042 8.92183 151.719 9.57124C152.396 10.2207 152.706 11.1807 152.706 12.3948V18.5218C152.706 18.6065 152.65 18.6912 152.565 18.7195C151.381 19.1712 150.14 19.3971 148.814 19.3971C147.601 19.3971 146.586 19.1148 145.796 18.5501C145.006 17.9854 144.611 17.1665 144.611 16.1218C144.611 15.1054 144.978 14.3148 145.74 13.7501C146.501 13.1854 147.517 12.9312 148.842 12.9312C149.547 12.9312 150.506 13.0442 151.663 13.2418V12.3665C151.663 10.4748 150.732 9.51477 148.842 9.51477C147.686 9.51477 146.642 9.79713 145.768 10.3336C145.683 10.3901 145.627 10.3901 145.542 10.3054L145.204 9.76889C145.119 9.74065 145.119 9.65595 145.175 9.62771ZM145.683 16.1218C145.683 16.8277 145.965 17.3924 146.558 17.8159C147.122 18.2395 147.883 18.4371 148.842 18.4371C149.773 18.4371 150.732 18.2677 151.663 17.9571V14.2018C150.732 14.0042 149.801 13.8912 148.842 13.8912C146.727 13.8912 145.683 14.6536 145.683 16.1218Z" fill="white"/>
<path d="M14.4 14.4V9.6H9.6V4.8H4.8V0H0V9.6H4.8V14.4H0V24H4.8V19.2H9.6V14.4H14.4Z" fill="white"/>
<path d="M19.2004 14.4004H14.4004V19.2004H19.2004V14.4004Z" fill="white"/>
<path d="M24.0002 19.2002H19.2002V24.0002H24.0002V19.2002Z" fill="white"/>
<path d="M14.3996 19.2002H9.59961V24.0002H14.3996V19.2002Z" fill="white"/>
<path d="M19.1996 4.8V0H9.59961V4.8H14.3996V9.6H19.1996V14.4H23.9996V4.8H19.1996Z" fill="white"/>
</svg>
