<svg width="24" height="24" viewBox="0 0 24 24" fill="none" xmlns="http://www.w3.org/2000/svg">
<path d="M16.1597 20.92C16.8797 21.12 17.6597 20.94 18.1997 20.42L20.6797 18.03C20.8797 17.84 20.9997 17.57 20.9997 17.29C20.9997 17.01 20.8897 16.74 20.6897 16.54L17.7597 13.61C17.3497 13.2 16.6897 13.2 16.2897 13.61L14.3997 15.5C11.6397 14.56 9.43971 12.36 8.49971 9.60001L10.3897 7.71001C10.7997 7.30001 10.7997 6.64001 10.3897 6.24001L7.4597 3.31C7.2597 3.11 6.9897 3 6.7097 3C6.4297 3 6.15971 3.12001 5.96971 3.32001L3.57969 5.8C3.05969 6.34 2.87969 7.11 3.07969 7.84C4.79969 14.22 9.77971 19.2 16.1597 20.92Z" stroke="#EE7C2D" stroke-width="1.5" stroke-linecap="round" stroke-linejoin="round"/>
<path d="M16.1597 20.92C16.8797 21.12 17.6597 20.94 18.1997 20.42L20.6797 18.03C20.8797 17.84 20.9997 17.57 20.9997 17.29C20.9997 17.01 20.8897 16.74 20.6897 16.54L17.7597 13.61C17.3497 13.2 16.6897 13.2 16.2897 13.61L14.3997 15.5C11.6397 14.56 9.43971 12.36 8.49971 9.60001L10.3897 7.71001C10.7997 7.30001 10.7997 6.64001 10.3897 6.24001L7.4597 3.31C7.2597 3.11 6.9897 3 6.7097 3C6.4297 3 6.15971 3.12001 5.96971 3.32001L3.57969 5.8C3.05969 6.34 2.87969 7.11 3.07969 7.84C4.79969 14.22 9.77971 19.2 16.1597 20.92Z" stroke="url(#paint0_linear)" stroke-width="1.5" stroke-linecap="round" stroke-linejoin="round"/>
<defs>
<linearGradient id="paint0_linear" x1="3" y1="3" x2="22.2508" y2="4.45585" gradientUnits="userSpaceOnUse">
<stop stop-color="#A4D73E"/>
<stop offset="1" stop-color="#88BD1F"/>
</linearGradient>
</defs>
</svg>
