<svg width="20" height="20" viewBox="0 0 20 20" fill="none" xmlns="http://www.w3.org/2000/svg">
<path d="M14.1597 18.92C14.8797 19.12 15.6597 18.94 16.1997 18.42L18.6797 16.03C18.8797 15.84 18.9997 15.57 18.9997 15.29C18.9997 15.01 18.8897 14.74 18.6897 14.54L15.7597 11.61C15.3497 11.2 14.6897 11.2 14.2897 11.61L12.3997 13.5C9.6397 12.56 7.43971 10.36 6.49971 7.60001L8.38972 5.71001C8.79972 5.30001 8.79972 4.64001 8.38972 4.24001L5.4597 1.31C5.2597 1.11 4.9897 1 4.7097 1C4.4297 1 4.15971 1.12001 3.96971 1.32001L1.57969 3.8C1.05969 4.34 0.879692 5.11 1.07969 5.84C2.79969 12.22 7.77971 17.2 14.1597 18.92Z" stroke="white" stroke-width="1.5" stroke-linecap="round" stroke-linejoin="round"/>
</svg>
