<svg width="24" height="24" viewBox="0 0 24 24" fill="none" xmlns="http://www.w3.org/2000/svg">
<path d="M11.9707 14.45C14.9707 14.45 16.9707 11.34 16.9707 8.01C16.9707 4 13.9707 3 11.9707 3C9.9707 3 6.9707 4 6.9707 8.01C6.9707 11.34 8.9707 14.45 11.9707 14.45Z" stroke="white" stroke-width="1.5" stroke-miterlimit="10" stroke-linecap="round" stroke-linejoin="round"/>
<path d="M6 16L4.37 16.54C3.55 16.81 3 17.58 3 18.44V20C3 20.55 3.45 21 4 21H20C20.55 21 21 20.55 21 20V18.44C21 17.58 20.45 16.81 19.63 16.54L18 16" stroke="white" stroke-width="1.5" stroke-miterlimit="10" stroke-linecap="round" stroke-linejoin="round"/>
</svg>
