<svg width="20" height="20" viewBox="0 0 20 20" fill="none" xmlns="http://www.w3.org/2000/svg">
<path d="M4.23586 14.7119C4.62906 14.5817 4.84221 14.1573 4.71195 13.7641C4.58169 13.3709 4.15734 13.1578 3.76414 13.2881L4.23586 14.7119ZM2.37 14.54L2.60456 15.2524L2.60585 15.2519L2.37 14.54ZM17.63 14.54L17.3941 15.252L17.3954 15.2524L17.63 14.54ZM16.2359 13.2881C15.8427 13.1578 15.4183 13.3709 15.2881 13.7641C15.1578 14.1573 15.3709 14.5817 15.7641 14.7119L16.2359 13.2881ZM9.96997 13.2C11.7564 13.2 13.2142 12.2669 14.1999 10.9221C15.1795 9.58567 15.72 7.81604 15.72 6.01H14.22C14.22 7.53397 13.7605 8.98433 12.9901 10.0354C12.2257 11.0781 11.1835 11.7 9.96997 11.7V13.2ZM15.72 6.01C15.72 3.79155 14.8762 2.30746 13.6705 1.40161C12.5009 0.522982 11.0747 0.25 9.96997 0.25V1.75C10.8653 1.75 11.939 1.97702 12.7695 2.60089C13.5637 3.19754 14.22 4.21845 14.22 6.01H15.72ZM9.96997 0.25C8.86527 0.25 7.43905 0.522982 6.26949 1.40161C5.0637 2.30746 4.21997 3.79155 4.21997 6.01H5.71997C5.71997 4.21845 6.37625 3.19754 7.17045 2.60089C8.0009 1.97702 9.07467 1.75 9.96997 1.75V0.25ZM4.21997 6.01C4.21997 7.81604 4.76046 9.58567 5.74007 10.9221C6.72572 12.2669 8.18355 13.2 9.96997 13.2V11.7C8.75639 11.7 7.71422 11.0781 6.94988 10.0354C6.17949 8.98433 5.71997 7.53397 5.71997 6.01H4.21997ZM3.76414 13.2881L2.13414 13.8281L2.60585 15.2519L4.23586 14.7119L3.76414 13.2881ZM2.13543 13.8276C1.00442 14.2 0.25 15.2598 0.25 16.44H1.75C1.75 15.9002 2.09557 15.42 2.60456 15.2524L2.13543 13.8276ZM0.25 16.44V18H1.75V16.44H0.25ZM0.25 18C0.25 18.9642 1.03579 19.75 2 19.75V18.25C1.86421 18.25 1.75 18.1358 1.75 18H0.25ZM2 19.75H18V18.25H2V19.75ZM18 19.75C18.9642 19.75 19.75 18.9642 19.75 18H18.25C18.25 18.1358 18.1358 18.25 18 18.25V19.75ZM19.75 18V16.44H18.25V18H19.75ZM19.75 16.44C19.75 15.2598 18.9956 14.2 17.8646 13.8276L17.3954 15.2524C17.9044 15.42 18.25 15.9002 18.25 16.44H19.75ZM17.8659 13.8281L16.2359 13.2881L15.7641 14.7119L17.3941 15.2519L17.8659 13.8281Z" fill="white"/>
<path d="M4.23586 14.7119C4.62906 14.5817 4.84221 14.1573 4.71195 13.7641C4.58169 13.3709 4.15734 13.1578 3.76414 13.2881L4.23586 14.7119ZM2.37 14.54L2.60456 15.2524L2.60585 15.2519L2.37 14.54ZM17.63 14.54L17.3941 15.252L17.3954 15.2524L17.63 14.54ZM16.2359 13.2881C15.8427 13.1578 15.4183 13.3709 15.2881 13.7641C15.1578 14.1573 15.3709 14.5817 15.7641 14.7119L16.2359 13.2881ZM9.96997 13.2C11.7564 13.2 13.2142 12.2669 14.1999 10.9221C15.1795 9.58567 15.72 7.81604 15.72 6.01H14.22C14.22 7.53397 13.7605 8.98433 12.9901 10.0354C12.2257 11.0781 11.1835 11.7 9.96997 11.7V13.2ZM15.72 6.01C15.72 3.79155 14.8762 2.30746 13.6705 1.40161C12.5009 0.522982 11.0747 0.25 9.96997 0.25V1.75C10.8653 1.75 11.939 1.97702 12.7695 2.60089C13.5637 3.19754 14.22 4.21845 14.22 6.01H15.72ZM9.96997 0.25C8.86527 0.25 7.43905 0.522982 6.26949 1.40161C5.0637 2.30746 4.21997 3.79155 4.21997 6.01H5.71997C5.71997 4.21845 6.37625 3.19754 7.17045 2.60089C8.0009 1.97702 9.07467 1.75 9.96997 1.75V0.25ZM4.21997 6.01C4.21997 7.81604 4.76046 9.58567 5.74007 10.9221C6.72572 12.2669 8.18355 13.2 9.96997 13.2V11.7C8.75639 11.7 7.71422 11.0781 6.94988 10.0354C6.17949 8.98433 5.71997 7.53397 5.71997 6.01H4.21997ZM3.76414 13.2881L2.13414 13.8281L2.60585 15.2519L4.23586 14.7119L3.76414 13.2881ZM2.13543 13.8276C1.00442 14.2 0.25 15.2598 0.25 16.44H1.75C1.75 15.9002 2.09557 15.42 2.60456 15.2524L2.13543 13.8276ZM0.25 16.44V18H1.75V16.44H0.25ZM0.25 18C0.25 18.9642 1.03579 19.75 2 19.75V18.25C1.86421 18.25 1.75 18.1358 1.75 18H0.25ZM2 19.75H18V18.25H2V19.75ZM18 19.75C18.9642 19.75 19.75 18.9642 19.75 18H18.25C18.25 18.1358 18.1358 18.25 18 18.25V19.75ZM19.75 18V16.44H18.25V18H19.75ZM19.75 16.44C19.75 15.2598 18.9956 14.2 17.8646 13.8276L17.3954 15.2524C17.9044 15.42 18.25 15.9002 18.25 16.44H19.75ZM17.8659 13.8281L16.2359 13.2881L15.7641 14.7119L17.3941 15.2519L17.8659 13.8281Z" fill="url(#paint0_linear)"/>
<defs>
<linearGradient id="paint0_linear" x1="1" y1="1" x2="20.2512" y2="2.45587" gradientUnits="userSpaceOnUse">
<stop stop-color="#A4D73E"/>
<stop offset="1" stop-color="#88BD1F"/>
</linearGradient>
</defs>
</svg>
