<svg width="24" height="24" viewBox="0 0 24 24" fill="none" xmlns="http://www.w3.org/2000/svg">
<path d="M19.4566 18.1C19.8766 18.19 20.3065 17.99 20.5265 17.62L21.3065 16.27C21.5265 15.9 21.4766 15.43 21.1866 15.11L20.0166 13.79C20.1466 13.21 20.2265 12.62 20.2265 12C20.2265 11.33 20.1366 10.69 19.9866 10.07L21.1266 8.78C21.4166 8.46 21.4565 7.99 21.2465 7.62L20.4665 6.26999C20.2465 5.89999 19.8265 5.70001 19.3965 5.79001L17.6665 6.14001C16.7565 5.30001 15.6566 4.66 14.4366 4.31L13.8965 2.67999C13.7565 2.26999 13.3765 2 12.9465 2H11.3865C10.9565 2 10.5766 2.27999 10.4366 2.67999L9.87655 4.35001C8.65655 4.72001 7.56656 5.37999 6.67656 6.23999L4.98655 5.89001C4.56655 5.80001 4.13655 6 3.91655 6.37L3.13655 7.72C2.91655 8.09 2.96654 8.56 3.25654 8.88L4.42656 10.2C4.29656 10.78 4.21655 11.37 4.21655 11.99C4.21655 12.66 4.30655 13.3 4.45655 13.92L3.31656 15.21C3.02656 15.53 2.98654 16 3.19654 16.37L3.97654 17.72C4.19654 18.09 4.61655 18.29 5.04655 18.2L6.77655 17.85C7.68655 18.69 8.78654 19.33 10.0065 19.68L10.5466 21.31C10.6866 21.72 11.0665 21.99 11.4965 21.99H13.0565C13.4865 21.99 13.8665 21.71 14.0065 21.31L14.5666 19.64C15.7866 19.27 16.8766 18.61 17.7666 17.75L19.4566 18.1Z" stroke="white" stroke-width="1.5" stroke-linecap="round" stroke-linejoin="round"/>
<path d="M12.2168 15.5C14.1498 15.5 15.7168 13.933 15.7168 12C15.7168 10.067 14.1498 8.5 12.2168 8.5C10.2838 8.5 8.7168 10.067 8.7168 12C8.7168 13.933 10.2838 15.5 12.2168 15.5Z" stroke="white" stroke-width="1.5" stroke-linecap="round" stroke-linejoin="round"/>
</svg>
