<svg width="21" height="22" viewBox="0 0 21 22" fill="none" xmlns="http://www.w3.org/2000/svg">
<path d="M17.4566 17.1L17.6137 16.3666L17.6087 16.3656L17.4566 17.1ZM18.5265 16.62L19.1712 17.0033L19.1759 16.9952L18.5265 16.62ZM19.3065 15.27L18.6618 14.8867L18.6571 14.8948L19.3065 15.27ZM19.1866 14.11L18.6253 14.6075L18.6308 14.6136L19.1866 14.11ZM18.0166 12.79L17.2847 12.626C17.232 12.8611 17.2955 13.1072 17.4553 13.2875L18.0166 12.79ZM17.9866 9.07001L17.4246 8.57336C17.2623 8.75696 17.2 9.00823 17.2576 9.24637L17.9866 9.07001ZM19.1266 7.78L18.5708 7.27632L18.5646 7.28335L19.1266 7.78ZM19.2465 6.62L19.8988 6.24978L19.8959 6.24479L19.2465 6.62ZM18.4665 5.26999L19.116 4.89475L19.1112 4.88668L18.4665 5.26999ZM17.3965 4.79001L17.5453 5.52513L17.5502 5.5241L17.3965 4.79001ZM15.6665 5.14001L15.1578 5.69112C15.3347 5.85442 15.5793 5.92286 15.8153 5.87512L15.6665 5.14001ZM12.4366 3.31L11.7246 3.54586C11.8025 3.78106 11.9916 3.96259 12.2297 4.03092L12.4366 3.31ZM11.8965 1.67999L12.6085 1.44412L12.6063 1.43763L11.8965 1.67999ZM8.43655 1.67999L7.7286 1.43221L7.72546 1.44155L8.43655 1.67999ZM7.87655 3.35001L8.09422 4.06772C8.32658 3.99726 8.51044 3.81866 8.58764 3.58845L7.87655 3.35001ZM4.67656 5.23999L4.52447 5.97441C4.76733 6.0247 5.01936 5.95168 5.19772 5.77933L4.67656 5.23999ZM2.98655 4.89001L2.8294 5.62338L2.83447 5.62443L2.98655 4.89001ZM1.91655 5.37L1.27184 4.98666L1.26715 4.99479L1.91655 5.37ZM1.13655 6.72L1.78125 7.10334L1.78595 7.09521L1.13655 6.72ZM1.25654 7.88L1.81784 7.38249L1.81228 7.37637L1.25654 7.88ZM2.42656 9.20001L3.1584 9.36405C3.21109 9.12894 3.14763 8.88283 2.98781 8.70253L2.42656 9.20001ZM2.45655 12.92L3.01855 13.4167C3.1808 13.2331 3.24314 12.9818 3.18552 12.7436L2.45655 12.92ZM1.31656 14.21L1.87234 14.7137L1.87855 14.7066L1.31656 14.21ZM1.19654 15.37L0.544261 15.7402L0.547145 15.7452L1.19654 15.37ZM1.97654 16.72L1.32709 17.0952L1.33189 17.1033L1.97654 16.72ZM3.04655 17.2L2.89782 16.4649L2.8929 16.4659L3.04655 17.2ZM4.77655 16.85L5.28526 16.2989C5.10835 16.1356 4.8638 16.0672 4.62782 16.1149L4.77655 16.85ZM8.00654 18.68L8.71849 18.4441C8.64057 18.2089 8.45152 18.0274 8.21336 17.9591L8.00654 18.68ZM8.54655 20.31L7.83457 20.5459L7.83679 20.5524L8.54655 20.31ZM12.0065 20.31L12.7145 20.5578L12.7176 20.5485L12.0065 20.31ZM12.5666 18.64L12.3489 17.9223C12.1165 17.9928 11.9327 18.1714 11.8555 18.4016L12.5666 18.64ZM15.7666 16.75L15.9187 16.0156C15.6758 15.9653 15.4237 16.0383 15.2454 16.2107L15.7666 16.75ZM17.2994 17.8334C18.0508 17.9944 18.7956 17.635 19.1712 17.0033L17.8819 16.2367C17.8175 16.345 17.7023 16.3856 17.6137 16.3667L17.2994 17.8334ZM19.1759 16.9952L19.9559 15.6452L18.6571 14.8948L17.8771 16.2448L19.1759 16.9952ZM19.9512 15.6533C20.3421 14.9959 20.2501 14.1667 19.7423 13.6063L18.6308 14.6136C18.703 14.6933 18.711 14.804 18.6619 14.8867L19.9512 15.6533ZM19.7478 13.6125L18.5778 12.2925L17.4553 13.2875L18.6253 14.6075L19.7478 13.6125ZM18.7484 12.954C18.8879 12.3315 18.9765 11.6857 18.9765 11H17.4765C17.4765 11.5543 17.4052 12.0885 17.2847 12.626L18.7484 12.954ZM18.9765 11C18.9765 10.2619 18.8773 9.56224 18.7155 8.89364L17.2576 9.24637C17.3958 9.81778 17.4765 10.3981 17.4765 11H18.9765ZM18.5486 9.56665L19.6886 8.27665L18.5646 7.28335L17.4246 8.57336L18.5486 9.56665ZM19.6823 8.28364C20.1997 7.71269 20.2612 6.8882 19.8988 6.24979L18.5943 6.9902C18.6519 7.09179 18.6334 7.20731 18.5708 7.27636L19.6823 8.28364ZM19.8959 6.24479L19.1159 4.89478L17.8171 5.6452L18.5971 6.9952L19.8959 6.24479ZM19.1112 4.88668C18.7363 4.25623 18.0034 3.89674 17.2429 4.05592L17.5502 5.5241C17.6497 5.50328 17.7568 5.54375 17.8219 5.6533L19.1112 4.88668ZM17.2478 4.0549L15.5178 4.40491L15.8153 5.87512L17.5453 5.52512L17.2478 4.0549ZM16.1753 4.58891C15.1838 3.67377 13.9817 2.97303 12.6434 2.58908L12.2297 4.03092C13.3314 4.34696 14.3292 4.92626 15.1578 5.69112L16.1753 4.58891ZM13.1485 3.07413L12.6085 1.44413L11.1846 1.91586L11.7246 3.54586L13.1485 3.07413ZM12.6063 1.43763C12.3624 0.723306 11.6966 0.25 10.9465 0.25V1.75C11.0565 1.75 11.1507 1.81668 11.1868 1.92235L12.6063 1.43763ZM10.9465 0.25H9.38655V1.75H10.9465V0.25ZM9.38655 0.25C8.62791 0.25 7.97062 0.740894 7.72866 1.43223L9.14444 1.92776C9.18248 1.81909 9.28518 1.75 9.38655 1.75V0.25ZM7.72546 1.44155L7.16547 3.11156L8.58764 3.58845L9.14764 1.91844L7.72546 1.44155ZM7.65888 2.63229C6.32019 3.03828 5.12729 3.76151 4.15539 4.70065L5.19772 5.77933C6.00582 4.99847 6.99291 4.40173 8.09422 4.06772L7.65888 2.63229ZM4.82864 4.50557L3.13864 4.1556L2.83447 5.62443L4.52447 5.97441L4.82864 4.50557ZM3.1437 4.15666C2.39237 3.99566 1.6475 4.35498 1.27189 4.98669L2.5612 5.7533C2.62559 5.64501 2.74074 5.60437 2.82941 5.62337L3.1437 4.15666ZM1.26715 4.99479L0.487147 6.34479L1.78595 7.09521L2.56595 5.7452L1.26715 4.99479ZM0.491895 6.33669C0.10103 6.99406 0.192978 7.82329 0.700802 8.38364L1.81228 7.37637C1.74011 7.29672 1.73206 7.18594 1.7812 7.10331L0.491895 6.33669ZM0.695283 8.37749L1.8653 9.69749L2.98781 8.70253L1.8178 7.38252L0.695283 8.37749ZM1.69471 9.03598C1.55519 9.65847 1.46655 10.3043 1.46655 10.99H2.96655C2.96655 10.4357 3.03792 9.90155 3.1584 9.36405L1.69471 9.03598ZM1.46655 10.99C1.46655 11.7281 1.56583 12.4278 1.72759 13.0964L3.18552 12.7436C3.04728 12.1722 2.96655 11.5918 2.96655 10.99H1.46655ZM1.89456 12.4234L0.754562 13.7133L1.87855 14.7066L3.01855 13.4167L1.89456 12.4234ZM0.760815 13.7064C0.243405 14.2773 0.181931 15.1018 0.54428 15.7402L1.84881 14.9998C1.79116 14.8982 1.8097 14.7827 1.8723 14.7136L0.760815 13.7064ZM0.547145 15.7452L1.32714 17.0952L2.62594 16.3448L1.84594 14.9948L0.547145 15.7452ZM1.33189 17.1033C1.70673 17.7337 2.43965 18.0933 3.2002 17.9341L2.8929 16.4659C2.79345 16.4867 2.68635 16.4463 2.6212 16.3367L1.33189 17.1033ZM3.19527 17.9351L4.92527 17.5851L4.62782 16.1149L2.89783 16.4649L3.19527 17.9351ZM4.26784 17.4011C5.25925 18.3163 6.46137 19.017 7.79972 19.4009L8.21336 17.9591C7.11171 17.643 6.11384 17.0637 5.28526 16.2989L4.26784 17.4011ZM7.2946 18.9159L7.8346 20.5459L9.2585 20.0741L8.71849 18.4441L7.2946 18.9159ZM7.83679 20.5524C8.08071 21.2667 8.74651 21.74 9.49655 21.74V20.24C9.38658 20.24 9.2924 20.1733 9.25631 20.0676L7.83679 20.5524ZM9.49655 21.74H11.0565V20.24H9.49655V21.74ZM11.0565 21.74C11.8152 21.74 12.4725 21.2491 12.7144 20.5578L11.2986 20.0622C11.2606 20.1709 11.1579 20.24 11.0565 20.24V21.74ZM12.7176 20.5485L13.2776 18.8785L11.8555 18.4016L11.2955 20.0715L12.7176 20.5485ZM12.7842 19.3577C14.1229 18.9517 15.3158 18.2285 16.2877 17.2893L15.2454 16.2107C14.4373 16.9915 13.4502 17.5883 12.3489 17.9223L12.7842 19.3577ZM15.6145 17.4844L17.3045 17.8344L17.6087 16.3656L15.9187 16.0156L15.6145 17.4844ZM12.9668 11C12.9668 12.5188 11.7356 13.75 10.2168 13.75V15.25C12.564 15.25 14.4668 13.3472 14.4668 11H12.9668ZM10.2168 13.75C8.69801 13.75 7.4668 12.5188 7.4668 11H5.9668C5.9668 13.3472 7.86959 15.25 10.2168 15.25V13.75ZM7.4668 11C7.4668 9.48122 8.69801 8.25 10.2168 8.25V6.75C7.86959 6.75 5.9668 8.65279 5.9668 11H7.4668ZM10.2168 8.25C11.7356 8.25 12.9668 9.48122 12.9668 11H14.4668C14.4668 8.65279 12.564 6.75 10.2168 6.75V8.25Z" fill="white"/>
<path d="M17.4566 17.1L17.6137 16.3666L17.6087 16.3656L17.4566 17.1ZM18.5265 16.62L19.1712 17.0033L19.1759 16.9952L18.5265 16.62ZM19.3065 15.27L18.6618 14.8867L18.6571 14.8948L19.3065 15.27ZM19.1866 14.11L18.6253 14.6075L18.6308 14.6136L19.1866 14.11ZM18.0166 12.79L17.2847 12.626C17.232 12.8611 17.2955 13.1072 17.4553 13.2875L18.0166 12.79ZM17.9866 9.07001L17.4246 8.57336C17.2623 8.75696 17.2 9.00823 17.2576 9.24637L17.9866 9.07001ZM19.1266 7.78L18.5708 7.27632L18.5646 7.28335L19.1266 7.78ZM19.2465 6.62L19.8988 6.24978L19.8959 6.24479L19.2465 6.62ZM18.4665 5.26999L19.116 4.89475L19.1112 4.88668L18.4665 5.26999ZM17.3965 4.79001L17.5453 5.52513L17.5502 5.5241L17.3965 4.79001ZM15.6665 5.14001L15.1578 5.69112C15.3347 5.85442 15.5793 5.92286 15.8153 5.87512L15.6665 5.14001ZM12.4366 3.31L11.7246 3.54586C11.8025 3.78106 11.9916 3.96259 12.2297 4.03092L12.4366 3.31ZM11.8965 1.67999L12.6085 1.44412L12.6063 1.43763L11.8965 1.67999ZM8.43655 1.67999L7.7286 1.43221L7.72546 1.44155L8.43655 1.67999ZM7.87655 3.35001L8.09422 4.06772C8.32658 3.99726 8.51044 3.81866 8.58764 3.58845L7.87655 3.35001ZM4.67656 5.23999L4.52447 5.97441C4.76733 6.0247 5.01936 5.95168 5.19772 5.77933L4.67656 5.23999ZM2.98655 4.89001L2.8294 5.62338L2.83447 5.62443L2.98655 4.89001ZM1.91655 5.37L1.27184 4.98666L1.26715 4.99479L1.91655 5.37ZM1.13655 6.72L1.78125 7.10334L1.78595 7.09521L1.13655 6.72ZM1.25654 7.88L1.81784 7.38249L1.81228 7.37637L1.25654 7.88ZM2.42656 9.20001L3.1584 9.36405C3.21109 9.12894 3.14763 8.88283 2.98781 8.70253L2.42656 9.20001ZM2.45655 12.92L3.01855 13.4167C3.1808 13.2331 3.24314 12.9818 3.18552 12.7436L2.45655 12.92ZM1.31656 14.21L1.87234 14.7137L1.87855 14.7066L1.31656 14.21ZM1.19654 15.37L0.544261 15.7402L0.547145 15.7452L1.19654 15.37ZM1.97654 16.72L1.32709 17.0952L1.33189 17.1033L1.97654 16.72ZM3.04655 17.2L2.89782 16.4649L2.8929 16.4659L3.04655 17.2ZM4.77655 16.85L5.28526 16.2989C5.10835 16.1356 4.8638 16.0672 4.62782 16.1149L4.77655 16.85ZM8.00654 18.68L8.71849 18.4441C8.64057 18.2089 8.45152 18.0274 8.21336 17.9591L8.00654 18.68ZM8.54655 20.31L7.83457 20.5459L7.83679 20.5524L8.54655 20.31ZM12.0065 20.31L12.7145 20.5578L12.7176 20.5485L12.0065 20.31ZM12.5666 18.64L12.3489 17.9223C12.1165 17.9928 11.9327 18.1714 11.8555 18.4016L12.5666 18.64ZM15.7666 16.75L15.9187 16.0156C15.6758 15.9653 15.4237 16.0383 15.2454 16.2107L15.7666 16.75ZM17.2994 17.8334C18.0508 17.9944 18.7956 17.635 19.1712 17.0033L17.8819 16.2367C17.8175 16.345 17.7023 16.3856 17.6137 16.3667L17.2994 17.8334ZM19.1759 16.9952L19.9559 15.6452L18.6571 14.8948L17.8771 16.2448L19.1759 16.9952ZM19.9512 15.6533C20.3421 14.9959 20.2501 14.1667 19.7423 13.6063L18.6308 14.6136C18.703 14.6933 18.711 14.804 18.6619 14.8867L19.9512 15.6533ZM19.7478 13.6125L18.5778 12.2925L17.4553 13.2875L18.6253 14.6075L19.7478 13.6125ZM18.7484 12.954C18.8879 12.3315 18.9765 11.6857 18.9765 11H17.4765C17.4765 11.5543 17.4052 12.0885 17.2847 12.626L18.7484 12.954ZM18.9765 11C18.9765 10.2619 18.8773 9.56224 18.7155 8.89364L17.2576 9.24637C17.3958 9.81778 17.4765 10.3981 17.4765 11H18.9765ZM18.5486 9.56665L19.6886 8.27665L18.5646 7.28335L17.4246 8.57336L18.5486 9.56665ZM19.6823 8.28364C20.1997 7.71269 20.2612 6.8882 19.8988 6.24979L18.5943 6.9902C18.6519 7.09179 18.6334 7.20731 18.5708 7.27636L19.6823 8.28364ZM19.8959 6.24479L19.1159 4.89478L17.8171 5.6452L18.5971 6.9952L19.8959 6.24479ZM19.1112 4.88668C18.7363 4.25623 18.0034 3.89674 17.2429 4.05592L17.5502 5.5241C17.6497 5.50328 17.7568 5.54375 17.8219 5.6533L19.1112 4.88668ZM17.2478 4.0549L15.5178 4.40491L15.8153 5.87512L17.5453 5.52512L17.2478 4.0549ZM16.1753 4.58891C15.1838 3.67377 13.9817 2.97303 12.6434 2.58908L12.2297 4.03092C13.3314 4.34696 14.3292 4.92626 15.1578 5.69112L16.1753 4.58891ZM13.1485 3.07413L12.6085 1.44413L11.1846 1.91586L11.7246 3.54586L13.1485 3.07413ZM12.6063 1.43763C12.3624 0.723306 11.6966 0.25 10.9465 0.25V1.75C11.0565 1.75 11.1507 1.81668 11.1868 1.92235L12.6063 1.43763ZM10.9465 0.25H9.38655V1.75H10.9465V0.25ZM9.38655 0.25C8.62791 0.25 7.97062 0.740894 7.72866 1.43223L9.14444 1.92776C9.18248 1.81909 9.28518 1.75 9.38655 1.75V0.25ZM7.72546 1.44155L7.16547 3.11156L8.58764 3.58845L9.14764 1.91844L7.72546 1.44155ZM7.65888 2.63229C6.32019 3.03828 5.12729 3.76151 4.15539 4.70065L5.19772 5.77933C6.00582 4.99847 6.99291 4.40173 8.09422 4.06772L7.65888 2.63229ZM4.82864 4.50557L3.13864 4.1556L2.83447 5.62443L4.52447 5.97441L4.82864 4.50557ZM3.1437 4.15666C2.39237 3.99566 1.6475 4.35498 1.27189 4.98669L2.5612 5.7533C2.62559 5.64501 2.74074 5.60437 2.82941 5.62337L3.1437 4.15666ZM1.26715 4.99479L0.487147 6.34479L1.78595 7.09521L2.56595 5.7452L1.26715 4.99479ZM0.491895 6.33669C0.10103 6.99406 0.192978 7.82329 0.700802 8.38364L1.81228 7.37637C1.74011 7.29672 1.73206 7.18594 1.7812 7.10331L0.491895 6.33669ZM0.695283 8.37749L1.8653 9.69749L2.98781 8.70253L1.8178 7.38252L0.695283 8.37749ZM1.69471 9.03598C1.55519 9.65847 1.46655 10.3043 1.46655 10.99H2.96655C2.96655 10.4357 3.03792 9.90155 3.1584 9.36405L1.69471 9.03598ZM1.46655 10.99C1.46655 11.7281 1.56583 12.4278 1.72759 13.0964L3.18552 12.7436C3.04728 12.1722 2.96655 11.5918 2.96655 10.99H1.46655ZM1.89456 12.4234L0.754562 13.7133L1.87855 14.7066L3.01855 13.4167L1.89456 12.4234ZM0.760815 13.7064C0.243405 14.2773 0.181931 15.1018 0.54428 15.7402L1.84881 14.9998C1.79116 14.8982 1.8097 14.7827 1.8723 14.7136L0.760815 13.7064ZM0.547145 15.7452L1.32714 17.0952L2.62594 16.3448L1.84594 14.9948L0.547145 15.7452ZM1.33189 17.1033C1.70673 17.7337 2.43965 18.0933 3.2002 17.9341L2.8929 16.4659C2.79345 16.4867 2.68635 16.4463 2.6212 16.3367L1.33189 17.1033ZM3.19527 17.9351L4.92527 17.5851L4.62782 16.1149L2.89783 16.4649L3.19527 17.9351ZM4.26784 17.4011C5.25925 18.3163 6.46137 19.017 7.79972 19.4009L8.21336 17.9591C7.11171 17.643 6.11384 17.0637 5.28526 16.2989L4.26784 17.4011ZM7.2946 18.9159L7.8346 20.5459L9.2585 20.0741L8.71849 18.4441L7.2946 18.9159ZM7.83679 20.5524C8.08071 21.2667 8.74651 21.74 9.49655 21.74V20.24C9.38658 20.24 9.2924 20.1733 9.25631 20.0676L7.83679 20.5524ZM9.49655 21.74H11.0565V20.24H9.49655V21.74ZM11.0565 21.74C11.8152 21.74 12.4725 21.2491 12.7144 20.5578L11.2986 20.0622C11.2606 20.1709 11.1579 20.24 11.0565 20.24V21.74ZM12.7176 20.5485L13.2776 18.8785L11.8555 18.4016L11.2955 20.0715L12.7176 20.5485ZM12.7842 19.3577C14.1229 18.9517 15.3158 18.2285 16.2877 17.2893L15.2454 16.2107C14.4373 16.9915 13.4502 17.5883 12.3489 17.9223L12.7842 19.3577ZM15.6145 17.4844L17.3045 17.8344L17.6087 16.3656L15.9187 16.0156L15.6145 17.4844ZM12.9668 11C12.9668 12.5188 11.7356 13.75 10.2168 13.75V15.25C12.564 15.25 14.4668 13.3472 14.4668 11H12.9668ZM10.2168 13.75C8.69801 13.75 7.4668 12.5188 7.4668 11H5.9668C5.9668 13.3472 7.86959 15.25 10.2168 15.25V13.75ZM7.4668 11C7.4668 9.48122 8.69801 8.25 10.2168 8.25V6.75C7.86959 6.75 5.9668 8.65279 5.9668 11H7.4668ZM10.2168 8.25C11.7356 8.25 12.9668 9.48122 12.9668 11H14.4668C14.4668 8.65279 12.564 6.75 10.2168 6.75V8.25Z" fill="url(#paint0_linear)"/>
<defs>
<linearGradient id="paint0_linear" x1="1" y1="1" x2="20.7417" y2="2.37744" gradientUnits="userSpaceOnUse">
<stop stop-color="#A4D73E"/>
<stop offset="1" stop-color="#88BD1F"/>
</linearGradient>
</defs>
</svg>
